PathFileType	4	(X/Y/Z)	 2.2Hz3min.trc
DataRate	CameraRate	NumFrames	NumMarkers	Units	OrigDataRate	OrigDataStartFrame	OrigNumFrames
200	200	10	39	m	200	751	1000
Frame#	Time	C7			LSH			RSH			MAN			RASI			LASI			HIPR			HIPL			RPSI			LPSI			COX			RTHI1			RTHI2			RTHI3			RTHI4			RLKN			RMKN			RSHA1			RSHA2			RSHA3			RSHA4			RHEEL			RMET5			RMET1			RTOE			LTHI1			LTHI2			LTHI3			LTHI4			LLKN			LMKN			LSHA1			LSHA2			LSHA3			LSHA4			LHEEL			LMET5			LMET1			LTOE			
		X1	Y1	Z1	X2	Y2	Z2	X3	Y3	Z3	X4	Y4	Z4	X5	Y5	Z5	X6	Y6	Z6	X7	Y7	Z7	X8	Y8	Z8	X9	Y9	Z9	X10	Y10	Z10	X11	Y11	Z11	X12	Y12	Z12	X13	Y13	Z13	X14	Y14	Z14	X15	Y15	Z15	X16	Y16	Z16	X17	Y17	Z17	X18	Y18	Z18	X19	Y19	Z19	X20	Y20	Z20	X21	Y21	Z21	X22	Y22	Z22	X23	Y23	Z23	X24	Y24	Z24	X25	Y25	Z25	X26	Y26	Z26	X27	Y27	Z27	X28	Y28	Z28	X29	Y29	Z29	X30	Y30	Z30	X31	Y31	Z31	X32	Y32	Z32	X33	Y33	Z33	X34	Y34	Z34	X35	Y35	Z35	X36	Y36	Z36	X37	Y37	Z37	X38	Y38	Z38	X39	Y39	Z39	
751	3.7550	-0.333290	1.574135	-0.566455	-0.279892	1.528138	-0.805674	-0.290081	1.528928	-0.354357	-0.194360	1.493223	-0.571283	-0.233984	1.044110	-0.456197	-0.227993	1.049170	-0.694505	-0.308743	1.094903	-0.409470	-0.300591	1.109547	-0.738845	-0.413260	1.076636	-0.521399	-0.408679	1.085116	-0.628867	-0.418659	1.076633	-0.576674	-0.285582	0.815073	-0.370759	-0.263514	0.761660	-0.356510	-0.202697	0.784846	-0.355913	-0.218474	0.842262	-0.371483	-0.184474	0.479077	-0.369868	-0.158952	0.470212	-0.470611	-0.288318	0.370670	-0.339105	-0.314414	0.336739	-0.345572	-0.242350	0.343055	-0.358363	-0.262948	0.308765	-0.361570	-0.477693	0.073101	-0.436683	-0.308698	0.024390	-0.348795	-0.260748	0.042963	-0.441346	-0.224331	0.029495	-0.437101	-0.262491	0.796012	-0.783496	-0.234756	0.742785	-0.793980	-0.174545	0.767355	-0.792365	-0.194463	0.823451	-0.783205	-0.160363	0.487167	-0.768901	-0.135249	0.477236	-0.676104	-0.316152	0.365682	-0.788173	-0.334396	0.329906	-0.784215	-0.277690	0.306553	-0.797757	-0.266118	0.349222	-0.800650	-0.460893	0.070737	-0.725907	-0.292810	0.028125	-0.809643	-0.242234	0.040790	-0.722601	-0.200880	0.027919	-0.733185	
752	3.7600	-0.333330	1.575472	-0.566358	-0.279672	1.529670	-0.805692	-0.289361	1.530231	-0.354267	-0.194428	1.494301	-0.571341	-0.233359	1.045475	-0.455955	-0.227339	1.050715	-0.694280	-0.308374	1.096193	-0.409318	-0.300374	1.110747	-0.738646	-0.412694	1.077615	-0.521274	-0.408119	1.086101	-0.628769	-0.418048	1.077615	-0.576564	-0.285750	0.816169	-0.370689	-0.263978	0.762641	-0.356445	-0.203048	0.785529	-0.355683	-0.218509	0.843038	-0.371251	-0.185995	0.479620	-0.369790	-0.160546	0.470759	-0.470589	-0.289418	0.370836	-0.339002	-0.315402	0.336797	-0.345512	-0.243349	0.343379	-0.358249	-0.263828	0.309012	-0.361477	-0.477720	0.072753	-0.436651	-0.308679	0.024350	-0.348737	-0.260799	0.042985	-0.441302	-0.224355	0.029489	-0.437105	-0.262543	0.797236	-0.783430	-0.235078	0.743880	-0.793969	-0.174753	0.768183	-0.792516	-0.194395	0.824360	-0.783315	-0.162046	0.487605	-0.769059	-0.136530	0.477557	-0.676411	-0.317246	0.365501	-0.788106	-0.335409	0.329689	-0.784136	-0.278626	0.306453	-0.797585	-0.267160	0.349129	-0.800521	-0.460989	0.070568	-0.725739	-0.292840	0.028127	-0.809625	-0.242256	0.040777	-0.722589	-0.200874	0.027901	-0.733199	
753	3.7650	-0.333371	1.577177	-0.566287	-0.279604	1.531571	-0.805725	-0.288745	1.531914	-0.354183	-0.194525	1.495820	-0.571402	-0.232634	1.047138	-0.455704	-0.226549	1.052544	-0.693965	-0.307815	1.097854	-0.409176	-0.299875	1.112158	-0.738448	-0.412009	1.078960	-0.521153	-0.407423	1.087472	-0.628692	-0.417333	1.078965	-0.576471	-0.286058	0.817531	-0.370721	-0.264648	0.763868	-0.356493	-0.203582	0.786394	-0.355474	-0.218657	0.844023	-0.371024	-0.188058	0.480343	-0.369829	-0.162584	0.471467	-0.470669	-0.290954	0.371085	-0.339047	-0.316770	0.336900	-0.345609	-0.244729	0.343848	-0.358212	-0.265035	0.309375	-0.361478	-0.477723	0.072354	-0.436794	-0.308697	0.024334	-0.348713	-0.260851	0.043003	-0.441277	-0.224380	0.029485	-0.437104	-0.262859	0.798671	-0.783243	-0.235774	0.745138	-0.793823	-0.175300	0.769071	-0.792723	-0.194550	0.825372	-0.783503	-0.164276	0.488220	-0.769229	-0.138215	0.478013	-0.676665	-0.318721	0.365366	-0.787856	-0.336770	0.329504	-0.783869	-0.279923	0.306435	-0.797343	-0.268592	0.349138	-0.800298	-0.461065	0.070455	-0.725454	-0.292879	0.028130	-0.809565	-0.242260	0.040762	-0.722565	-0.200856	0.027886	-0.733215	
754	3.7700	-0.333423	1.579227	-0.566242	-0.279694	1.533824	-0.805757	-0.288265	1.533978	-0.354108	-0.194644	1.497776	-0.571470	-0.231835	1.049080	-0.455446	-0.225647	1.054653	-0.693579	-0.307080	1.099892	-0.409038	-0.299118	1.113816	-0.738256	-0.411224	1.080679	-0.521025	-0.406620	1.089221	-0.628627	-0.416535	1.080678	-0.576385	-0.286468	0.819194	-0.370778	-0.265477	0.765366	-0.356637	-0.204263	0.787464	-0.355319	-0.218905	0.845231	-0.370832	-0.190592	0.481290	-0.369932	-0.164986	0.472354	-0.470848	-0.292867	0.371477	-0.339242	-0.318465	0.337112	-0.345857	-0.246431	0.344511	-0.358262	-0.266514	0.309895	-0.361581	-0.477740	0.071991	-0.437050	-0.308744	0.024343	-0.348721	-0.260897	0.043015	-0.441273	-0.224402	0.029482	-0.437100	-0.263411	0.800314	-0.782928	-0.236790	0.746562	-0.793534	-0.176142	0.770052	-0.792947	-0.194922	0.826506	-0.783740	-0.166924	0.489079	-0.769372	-0.140226	0.478666	-0.676833	-0.320483	0.365389	-0.787435	-0.338387	0.329473	-0.783426	-0.281496	0.306603	-0.797040	-0.270325	0.349340	-0.799987	-0.461096	0.070466	-0.725083	-0.292921	0.028139	-0.809461	-0.242240	0.040743	-0.722531	-0.200820	0.027874	-0.733228	
755	3.7750	-0.333492	1.581596	-0.566218	-0.279944	1.536424	-0.805789	-0.287938	1.536419	-0.354048	-0.194775	1.500163	-0.571545	-0.230983	1.051291	-0.455197	-0.224666	1.057032	-0.693142	-0.306183	1.102288	-0.408899	-0.298131	1.115763	-0.738076	-0.410365	1.082764	-0.520880	-0.405740	1.091339	-0.628564	-0.415669	1.082743	-0.576293	-0.286965	0.821147	-0.370899	-0.266417	0.767145	-0.356860	-0.205049	0.788790	-0.355243	-0.219229	0.846696	-0.370706	-0.193518	0.482486	-0.370188	-0.167681	0.473452	-0.471132	-0.295090	0.372065	-0.339581	-0.320418	0.337496	-0.346253	-0.248398	0.345402	-0.358396	-0.268217	0.310633	-0.361766	-0.477755	0.071718	-0.437371	-0.308807	0.024372	-0.348758	-0.260930	0.043022	-0.441287	-0.224418	0.029483	-0.437095	-0.264158	0.802167	-0.782490	-0.238059	0.748166	-0.793103	-0.177227	0.771168	-0.793144	-0.195475	0.827797	-0.783987	-0.169858	0.490238	-0.769438	-0.142490	0.479605	-0.676876	-0.322428	0.365683	-0.786871	-0.340170	0.329701	-0.782839	-0.283235	0.307066	-0.796675	-0.272255	0.349827	-0.799596	-0.461072	0.070648	-0.724664	-0.292959	0.028153	-0.809310	-0.242193	0.040722	-0.722484	-0.200768	0.027866	-0.733234	
756	3.7800	-0.333585	1.584261	-0.566206	-0.280347	1.539356	-0.805813	-0.287760	1.539205	-0.353999	-0.194916	1.502962	-0.571629	-0.230096	1.053764	-0.454964	-0.223637	1.059668	-0.692682	-0.305135	1.105027	-0.408753	-0.296946	1.118062	-0.737906	-0.409452	1.085199	-0.520715	-0.404806	1.093799	-0.628490	-0.414763	1.085146	-0.576178	-0.287518	0.823395	-0.371072	-0.267419	0.769203	-0.357154	-0.205895	0.790375	-0.355266	-0.219601	0.848429	-0.370665	-0.196701	0.483981	-0.370552	-0.170622	0.474776	-0.471536	-0.297537	0.372894	-0.340058	-0.322561	0.338104	-0.346760	-0.250556	0.346565	-0.358619	-0.270083	0.311629	-0.362026	-0.477755	0.071593	-0.437698	-0.308875	0.024416	-0.348818	-0.260947	0.043024	-0.441317	-0.224428	0.029484	-0.437096	-0.265044	0.804259	-0.781946	-0.239514	0.749993	-0.792544	-0.178488	0.772468	-0.793285	-0.196160	0.829284	-0.784202	-0.172942	0.491745	-0.769379	-0.144939	0.480904	-0.676762	-0.324462	0.366342	-0.786205	-0.342026	0.330280	-0.782147	-0.285055	0.307908	-0.796251	-0.274274	0.350708	-0.799135	-0.460982	0.071042	-0.724239	-0.292990	0.028178	-0.809111	-0.242120	0.040697	-0.722425	-0.200703	0.027861	-0.733236	
757	3.7850	-0.333701	1.587199	-0.566204	-0.280885	1.542605	-0.805826	-0.287727	1.542322	-0.353961	-0.195062	1.506144	-0.571721	-0.229184	1.056487	-0.454764	-0.222586	1.062565	-0.692228	-0.303939	1.108095	-0.408610	-0.295601	1.120756	-0.737738	-0.408505	1.087968	-0.520512	-0.403844	1.096588	-0.628398	-0.413833	1.087880	-0.576037	-0.288090	0.825928	-0.371304	-0.268426	0.771559	-0.357470	-0.206748	0.792250	-0.355402	-0.219988	0.850441	-0.370724	-0.200070	0.485781	-0.371046	-0.173754	0.476371	-0.472079	-0.300125	0.373993	-0.340647	-0.324824	0.338976	-0.347355	-0.252839	0.348016	-0.358922	-0.272062	0.312903	-0.362350	-0.477738	0.071667	-0.437981	-0.308940	0.024475	-0.348895	-0.260951	0.043020	-0.441361	-0.224435	0.029486	-0.437105	-0.266009	0.806634	-0.781314	-0.241077	0.752092	-0.791880	-0.179857	0.774006	-0.793337	-0.196922	0.831016	-0.784350	-0.176040	0.493638	-0.769156	-0.147512	0.482631	-0.676456	-0.326508	0.367418	-0.785475	-0.343879	0.331271	-0.781393	-0.286872	0.309186	-0.795775	-0.276296	0.352035	-0.798615	-0.460828	0.071684	-0.723857	-0.293015	0.028212	-0.808865	-0.242024	0.040668	-0.722358	-0.200636	0.027858	-0.733229	
758	3.7900	-0.333841	1.590397	-0.566210	-0.281522	1.546156	-0.805825	-0.287819	1.545755	-0.353935	-0.195209	1.509670	-0.571822	-0.228259	1.059449	-0.454597	-0.221539	1.065717	-0.691796	-0.302637	1.111474	-0.408458	-0.294127	1.123879	-0.737557	-0.407536	1.091053	-0.520277	-0.402874	1.099675	-0.628285	-0.412897	1.090924	-0.575866	-0.288628	0.828764	-0.371499	-0.269400	0.774210	-0.357791	-0.207573	0.794409	-0.355654	-0.220356	0.852718	-0.370883	-0.203528	0.487885	-0.371653	-0.177053	0.478261	-0.472777	-0.302776	0.375388	-0.341314	-0.327142	0.340139	-0.348008	-0.255187	0.349763	-0.359301	-0.274102	0.314472	-0.362732	-0.477701	0.071963	-0.438187	-0.308996	0.024545	-0.348988	-0.260943	0.043011	-0.441415	-0.224448	0.029486	-0.437126	-0.266993	0.809330	-0.780620	-0.242672	0.754512	-0.791141	-0.181264	0.775840	-0.793273	-0.197708	0.833053	-0.784404	-0.179034	0.495931	-0.768766	-0.150187	0.484800	-0.675929	-0.328510	0.368922	-0.784711	-0.345678	0.332693	-0.780617	-0.288621	0.310904	-0.795252	-0.278268	0.353792	-0.798048	-0.460612	0.072605	-0.723541	-0.293034	0.028262	-0.808574	-0.241910	0.040636	-0.722283	-0.200576	0.027854	-0.733213	
759	3.7950	-0.333997	1.593840	-0.566222	-0.282261	1.550004	-0.805829	-0.288009	1.549477	-0.353923	-0.195359	1.513500	-0.571930	-0.227327	1.062650	-0.454471	-0.220528	1.069112	-0.691401	-0.301246	1.115130	-0.408301	-0.292575	1.127465	-0.737350	-0.406562	1.094427	-0.520001	-0.401913	1.103055	-0.628155	-0.411969	1.094256	-0.575658	-0.289133	0.831851	-0.371745	-0.270319	0.777127	-0.358126	-0.208338	0.796846	-0.356012	-0.220675	0.855267	-0.371146	-0.206983	0.490282	-0.372402	-0.180494	0.480480	-0.473640	-0.305423	0.377076	-0.342019	-0.329463	0.341610	-0.348695	-0.257550	0.351799	-0.359739	-0.276162	0.316344	-0.363156	-0.477622	0.072500	-0.438294	-0.309039	0.024620	-0.349099	-0.260926	0.042995	-0.441478	-0.224469	0.029483	-0.437160	-0.267944	0.812370	-0.779902	-0.244224	0.757282	-0.790362	-0.182630	0.778028	-0.793085	-0.198460	0.835436	-0.784340	-0.181862	0.498598	-0.768201	-0.152947	0.487418	-0.675156	-0.330433	0.370815	-0.783954	-0.347397	0.334497	-0.779854	-0.290273	0.313014	-0.794686	-0.280145	0.355951	-0.797447	-0.460335	0.073814	-0.723297	-0.293045	0.028326	-0.808240	-0.241786	0.040597	-0.722201	-0.200530	0.027847	-0.733189	
760	3.8000	-0.334164	1.597511	-0.566246	-0.283065	1.554124	-0.805835	-0.288264	1.553466	-0.353924	-0.195518	1.517593	-0.572047	-0.226402	1.066071	-0.454380	-0.219564	1.072745	-0.691047	-0.299794	1.119067	-0.408146	-0.290983	1.131500	-0.737107	-0.405595	1.098074	-0.519687	-0.400972	1.106702	-0.628008	-0.411063	1.097861	-0.575417	-0.289570	0.835200	-0.371989	-0.271167	0.780298	-0.358473	-0.209024	0.799523	-0.356470	-0.220925	0.858057	-0.371504	-0.210377	0.492968	-0.373223	-0.184051	0.483034	-0.474661	-0.308005	0.379054	-0.342736	-0.331743	0.343386	-0.349369	-0.259878	0.354109	-0.360230	-0.278203	0.318491	-0.363626	-0.477497	0.073304	-0.438296	-0.309068	0.024703	-0.349228	-0.260904	0.042972	-0.441546	-0.224505	0.029476	-0.437206	-0.268803	0.815768	-0.779194	-0.245650	0.760428	-0.789582	-0.183876	0.780609	-0.792769	-0.199127	0.838196	-0.784144	-0.184502	0.501602	-0.767476	-0.155792	0.490451	-0.674134	-0.332266	0.373026	-0.783230	-0.349022	0.336626	-0.779133	-0.291814	0.315455	-0.794084	-0.281914	0.358451	-0.796819	-0.459987	0.075334	-0.723145	-0.293044	0.028406	-0.807869	-0.241651	0.040551	-0.722113	-0.200501	0.027836	-0.733153	
